<svg version="1.2" xmlns="http://www.w3.org/2000/svg" viewBox="0 0 391 391" width="391" height="391">
	<title>motorbike-svg</title>
	<style>
		.s0 { fill: #ffc10d } 
		.s1 { fill: #56ace0 } 
		.s2 { fill: #ffffff } 
		.s3 { fill: #194f82 } 
	</style>
	<g id="Layer">
		<path id="Layer" class="s0" d="m205.5 156.1c-4.3-2-13.6-6-25.8-9.3 7.9-1.9 19.5-2.3 33.4 4.6-2.3 2-4.6 3.7-7.6 4.7z"/>
		<path id="Layer" class="s0" d="m114 160.7c8.3-3.6 18.2-5.6 29.1-5.6 29.7 0 58.4 13.8 58.8 14.2 1.3 0.6 2.9 0.9 4.3 0.6 19.5-4.3 27.7-24.1 30.7-34.6 21.5 4.9 28.4 22.4 30.4 31.7-44 5.9-53.9 42.6-55.9 57.8h-32.7c-1.9-16.2-11.5-56.5-64.7-64.1z"/>
	</g>
	<path id="Layer" class="s1" d="m272.6 254.8c-15.3 0-27.7-12.4-27.7-27.7 0-15.3 12.4-27.7 27.7-27.7 15.4 0 27.8 12.4 27.8 27.7 0 15.3-12.4 27.7-27.8 27.7z"/>
	<path id="Layer" class="s2" d="m144.7 227.1c0 15.2-12.5 27.7-27.7 27.7-15.2 0-27.8-12.5-27.8-27.7 0-15.2 12.6-27.7 27.8-27.7 3.3 0 6.2 0.6 9.2 1.6l-14.8 22.5c-2 2.9-1.4 7.2 2 9.2 2.9 2 7.2 1.3 9.2-1.9l14.9-22.5c4.6 4.9 7.2 11.5 7.2 18.8z"/>
	<path id="Layer" fill-rule="evenodd" class="s3" d="m314 227.1c0 22.5-18.5 40.9-41 40.9-22.5 0-41-18.5-41-40.9 0-12.6 5.6-23.5 14.2-31.1l-3.3-5.3c-18.5 14.9-19.1 39.7-19.1 41 0 3.7-3 6.6-6.7 6.6h-44.6c-3.6 0-6.6-3.3-6.6-6.9 0-1.7 0.3-24.1-16.8-41l-4.3 6.6c8.2 7.6 13.2 18.2 13.2 30.1 0 22.5-18.5 41-41 41-22.5 0-41-18.5-41-41 0-22.5 18.5-41 41-41 5.9 0 11.5 1.3 16.5 3.6l5-7.2c-9-5.3-20.9-8.9-36.7-9.6-3.7 0-6.3-3-6.3-6.6v-6.3c0-1.9 1.3-3.9 3-5.2 12.2-8.3 27.4-12.6 44.9-12.6 4.9 0 10.2 0.3 15.2 1 7.6-5.7 31.4-19.5 62.1-2.4 3.3-7.2 4.6-14.1 4.6-14.1 0.6-3.7 3.6-6 7.3-5.7 36.6 4.3 47.9 35.4 48.9 51.6 0.3 3.6-2.7 6.6-6.3 6.9-8.2 0.3-15.2 2-20.8 4.3l3.3 5.3c4.6-2 9.9-3 15.2-3 22.5 0 41.1 18.5 41.1 41zm-46.7-60.1c-2-9.3-8.9-26.8-30.4-31.7-3 10.5-11.2 30.3-30.7 34.6-1.4 0.3-3 0-4.3-0.6-0.4-0.4-29.1-14.2-58.8-14.2-10.9 0-20.8 2-29.1 5.6 53.2 7.6 62.8 47.9 64.7 64.1h32.7c2-15.2 11.9-51.9 55.9-57.8zm-122.6 60.1c0-7.2-2.7-13.8-7.3-18.8l-14.8 22.5c-2 3.3-6.3 3.9-9.3 1.9-3.3-2-3.9-6.3-2-9.2l14.9-22.5c-3-1-5.9-1.6-9.3-1.6-15.1 0-27.7 12.5-27.7 27.7 0 15.2 12.5 27.7 27.7 27.7 15.3 0 27.8-12.5 27.8-27.7zm35-80.3c12.2 3.3 21.5 7.3 25.8 9.3 3-1 5.3-2.7 7.6-4.7-13.9-6.9-25.4-6.6-33.4-4.6zm120.6 80.3c0-15.2-12.5-27.8-27.7-27.8-3 0-5.6 0.4-8.3 1.4l13.9 23.1c1.6 2.9 0.6 6.9-2.3 8.9-3 1.7-7 0.6-8.9-2.3l-13.9-22.8c-5 5-7.9 11.9-7.9 19.5 0 15.2 12.5 27.7 27.7 27.7 15.2 0 27.4-12.6 27.4-27.7z"/>
</svg>